<svg width="62" height="62" viewBox="0 0 62 62" fill="none" xmlns="http://www.w3.org/2000/svg">
<path d="M15.2107 24.6842V46.7895M27.8423 34.1579V46.7895M27.8423 34.1579C27.8423 32.9138 28.0873 31.6819 28.5634 30.5325C29.0395 29.3831 29.7373 28.3387 30.617 27.459C31.4967 26.5793 32.5411 25.8814 33.6905 25.4053C34.8399 24.9293 36.0718 24.6842 37.3159 24.6842C38.56 24.6842 39.792 24.9293 40.9414 25.4053C42.0908 25.8814 43.1351 26.5793 44.0148 27.459C44.8946 28.3387 45.5924 29.3831 46.0685 30.5325C46.5446 31.6819 46.7896 32.9138 46.7896 34.1579V46.7895M27.8423 34.1579V24.6842M15.2359 15.2105H15.2075" stroke="#023048" stroke-width="2" stroke-linecap="round" stroke-linejoin="round"/>
<path d="M1 31C1 16.8589 1 9.78526 5.39263 5.39263C9.78526 1 16.8558 1 31 1C45.1411 1 52.2147 1 56.6074 5.39263C61 9.78526 61 16.8558 61 31C61 45.1411 61 52.2147 56.6074 56.6074C52.2147 61 45.1442 61 31 61C16.8589 61 9.78526 61 5.39263 56.6074C1 52.2147 1 45.1442 1 31Z" stroke="#023048" stroke-width="2" stroke-linecap="round" stroke-linejoin="round"/>
</svg>
