<svg width="62" height="62" viewBox="0 0 62 62" fill="none" xmlns="http://www.w3.org/2000/svg">
<path d="M61 17.6667V44.3333C61 48.7536 59.2441 52.9928 56.1185 56.1184C52.9928 59.244 48.7536 61 44.3333 61H17.6667C13.2464 61 9.00716 59.244 5.88155 56.1184C2.75595 52.9928 1 48.7536 1 44.3333V17.6667C1 13.2464 2.75595 9.00716 5.88155 5.88155C9.00716 2.75595 13.2464 1 17.6667 1H44.3333C48.7536 1 52.9928 2.75595 56.1185 5.88155C59.2441 9.00716 61 13.2464 61 17.6667Z" stroke="#023048" stroke-width="2" stroke-linecap="round" stroke-linejoin="round"/>
<path d="M27.6667 51.6087V27.8985C27.6667 20.6085 29.3333 14.5652 41 14.5652M21 31.2319H41" stroke="#023048" stroke-width="2" stroke-linecap="round" stroke-linejoin="round"/>
</svg>
