<svg width="62" height="62" viewBox="0 0 62 62" fill="none" xmlns="http://www.w3.org/2000/svg">
<path d="M39.5969 53.4018V47.6618C39.6726 46.7082 39.5426 45.7494 39.2156 44.8494C38.8886 43.9494 38.3721 43.1287 37.7004 42.4418C44.0355 41.7418 50.6934 39.3618 50.6934 28.4418C50.6929 25.6495 49.6093 22.9642 47.6671 20.9418C48.5868 18.4988 48.5217 15.7985 47.4855 13.4018C47.4855 13.4018 45.1048 12.7018 39.5969 16.3618C34.9724 15.1214 30.0985 15.1214 25.4741 16.3618C19.9662 12.7018 17.5855 13.4018 17.5855 13.4018C16.5492 15.7985 16.4842 18.4988 17.4039 20.9418C15.4472 22.9792 14.3625 25.6887 14.3776 28.5018C14.3776 39.3418 21.0355 41.7218 27.3706 42.5018C26.7068 43.1818 26.1949 43.9926 25.8681 44.8817C25.5414 45.7707 25.4071 46.718 25.4741 47.6618V53.4018" stroke="#023048" stroke-width="2" stroke-linecap="round" stroke-linejoin="round"/>
<path d="M25.4739 49.4018C19.4212 51.3478 14.3774 49.4018 11.3511 43.4018" stroke="#023048" stroke-width="2" stroke-linecap="round" stroke-linejoin="round"/>
<path d="M61 17.6667V44.3333C61 48.7536 59.244 52.9928 56.1184 56.1184C52.9928 59.244 48.7536 61 44.3333 61H17.6667C13.2464 61 9.00716 59.244 5.88155 56.1184C2.75595 52.9928 1 48.7536 1 44.3333V17.6667C1 13.2464 2.75595 9.00716 5.88155 5.88155C9.00716 2.75595 13.2464 1 17.6667 1H44.3333C48.7536 1 52.9928 2.75595 56.1184 5.88155C59.244 9.00716 61 13.2464 61 17.6667Z" stroke="#023048" stroke-width="2" stroke-linecap="round" stroke-linejoin="round"/>
</svg>
