<svg width="80" height="80" viewBox="0 0 80 80" fill="none" xmlns="http://www.w3.org/2000/svg">
<g clip-path="url(#clip0_59_285)">
<path d="M58.3189 22.5676C61.4261 22.5676 63.945 20.087 63.945 17.027C63.945 13.9671 61.4261 11.4865 58.3189 11.4865C55.2117 11.4865 52.6929 13.9671 52.6929 17.027C52.6929 20.087 55.2117 22.5676 58.3189 22.5676Z" stroke="#023048" stroke-width="2"/>
<path d="M51.9385 25.6081C53.1758 24.1118 55.0312 23.2432 56.9907 23.2432H58.1134C62.7743 23.2432 66.5525 26.9641 66.5525 31.5541V35.5405" stroke="#023048" stroke-width="2"/>
<path d="M57.9295 28.3841L55.9641 23.8907C55.886 23.7123 56.0189 23.5135 56.2161 23.5135H60.147C60.3444 23.5135 60.4772 23.7123 60.3991 23.8907L58.4337 28.3841C58.3385 28.6019 58.0248 28.6019 57.9295 28.3841Z" stroke="#023048" stroke-width="2"/>
<path d="M62.71 30.4054V36.7568" stroke="#023048" stroke-width="2"/>
<path d="M21.8873 22.5572C18.7505 22.5572 16.2077 20.053 16.2077 16.9639C16.2077 13.8748 18.7505 11.3706 21.8873 11.3706C25.024 11.3706 27.5669 13.8748 27.5669 16.9639C27.5669 20.053 25.024 22.5572 21.8873 22.5572Z" stroke="#023048" stroke-width="2"/>
<path d="M28.3363 25.6081C26.9841 24.0959 25.0369 23.2295 22.9911 23.2295H21.9555C17.2567 23.2295 13.4478 26.9807 13.4478 31.6078V35.6268" stroke="#023048" stroke-width="2"/>
<path d="M22.1383 28.4364L24.135 23.8716C24.2131 23.6931 24.0803 23.4943 23.8829 23.4943H19.8895C19.6922 23.4943 19.5594 23.6931 19.6375 23.8716L21.6342 28.4364C21.7294 28.6542 22.0431 28.6542 22.1383 28.4364Z" stroke="#023048" stroke-width="2"/>
<path d="M17.3291 30.4511C17.3291 30.4511 17.3291 37.9922 17.3291 38.8514" stroke="#023048" stroke-width="2"/>
<path d="M40.0685 17.973C44.843 17.973 48.7135 14.1614 48.7135 9.45947C48.7135 4.75758 44.843 0.945953 40.0685 0.945953C35.2941 0.945953 31.4236 4.75758 31.4236 9.45947C31.4236 14.1614 35.2941 17.973 40.0685 17.973Z" stroke="#023048" stroke-width="2"/>
<path d="M27.5815 37.4324V33.3085V30C27.5815 23.3577 33.0494 17.973 39.7942 17.973H40.6176C47.3624 17.973 52.8303 23.3577 52.8303 30V33.3085" stroke="#023048" stroke-width="2"/>
<path d="M39.8855 27.5603L36.0044 18.7562C35.9258 18.5778 36.0586 18.3784 36.2561 18.3784H44.0184C44.2159 18.3784 44.3487 18.5778 44.2701 18.7562L40.3891 27.5603C40.2934 27.7772 39.9811 27.7772 39.8855 27.5603Z" stroke="#023048" stroke-width="2"/>
<path d="M33.4819 30.4054V37.2973" stroke="#023048" stroke-width="2"/>
<path d="M9.87983 32.2973H4.5282C2.55779 32.2973 0.960449 33.8704 0.960449 35.8108V59.5946C0.960449 61.5351 2.55779 63.1081 4.5282 63.1081H9.87983C11.8502 63.1081 13.4476 61.5351 13.4476 59.5946V35.8108C13.4476 33.8704 11.8502 32.2973 9.87983 32.2973Z" stroke="#023048" stroke-width="2"/>
<path d="M75.4716 32.2973H70.12C68.1496 32.2973 66.5522 33.8704 66.5522 35.8108V59.5946C66.5522 61.5351 68.1496 63.1081 70.12 63.1081H75.4716C77.442 63.1081 79.0394 61.5351 79.0394 59.5946V35.8108C79.0394 33.8704 77.442 32.2973 75.4716 32.2973Z" stroke="#023048" stroke-width="2"/>
<path d="M13.1733 59.5176H13.9709C15.7712 59.5174 17.5018 60.3849 18.4555 61.7653L18.6578 62.058L22.1685 67.1391L27.4069 74.7206C28.4775 76.27 30.5103 77.1549 32.4945 76.9351L32.7045 76.9119C33.5956 76.8133 34.4061 76.4746 35.0231 75.9433C36.2106 74.9206 36.5136 73.3357 35.793 71.9166L35.7462 71.8243" stroke="#023048" stroke-width="2"/>
<path d="M29.4341 61.6216L36.7075 73.3269C37.543 74.6713 39.2586 75.4607 40.9401 75.2742C41.7428 75.1851 42.4724 74.8789 43.0263 74.3988L43.1289 74.3097C44.3691 73.2346 44.4539 71.483 43.3297 70.1607" stroke="#023048" stroke-width="2"/>
<path d="M36.501 57.9054L43.7738 70.9754C44.6057 72.4703 46.2173 73.3454 47.9263 73.2304L48.2081 73.2113C49.199 73.1447 50.1389 72.7263 50.8604 72.0309C52.1283 70.8088 52.5227 68.9339 51.8504 67.3231L51.574 66.6612" stroke="#023048" stroke-width="2"/>
<path d="M43.7734 52.973L52.4311 68.3062C53.4783 70.1605 55.6879 70.9976 57.7143 70.3074L58.627 69.9966C59.1487 69.819 59.6295 69.5346 60.039 69.1615C61.3995 67.9218 61.7563 65.9184 60.9035 64.3078L48.9472 42.0779" stroke="#023048" stroke-width="2"/>
<mask id="mask0_59_285" style="mask-type:luminance" maskUnits="userSpaceOnUse" x="24" y="29" width="44" height="35">
<path fill-rule="evenodd" clip-rule="evenodd" d="M42.3932 31.6984L38.1159 34.858L33.7385 38.1526L33.7071 38.1149L27.9527 42.3655C26.1569 43.692 25.9842 46.1765 27.5829 47.6816C28.7301 48.7616 30.4923 49.0307 31.9628 48.3504L49.3126 40.3234L50.1355 41.9022L59.2625 58.8211L59.2765 58.847L59.2887 58.8739L59.6072 59.5724C60.8681 62.3374 65.219 61.6269 65.5726 58.6209V41.0305C65.5726 39.6454 64.6943 38.4138 63.3437 37.9055L55.4008 34.9161L55.3837 34.9097L55.3668 34.9026L47.2677 31.5054C45.7126 30.8531 43.9129 30.927 42.3932 31.6984ZM48.3977 42.7953L32.8231 50.0009C30.5927 51.0328 27.9199 50.6247 26.1798 48.9866C23.7547 46.7035 24.0168 42.9351 26.7408 40.923L37.7753 32.7719L40.8159 30.4835C40.9609 30.3743 41.114 30.2754 41.274 30.1874L41.3151 30.157L41.3197 30.1626C43.413 29.0322 45.9294 28.9 48.0953 29.8085L56.1774 33.1985L64.1031 36.1814C66.1808 36.9632 67.5322 38.8581 67.5322 40.9892V58.628V58.6736L67.5274 58.7192C67.0108 63.6728 59.8683 64.8623 57.8052 60.3382L57.4989 59.6665L48.3977 42.7953Z" fill="white"/>
</mask>
<g mask="url(#mask0_59_285)">
<path d="M42.3932 31.6984L41.513 30.0168L41.3695 30.0896L41.2404 30.185L42.3932 31.6984ZM38.1158 34.858L36.9632 33.3446L36.9562 33.3497L36.9493 33.3549L38.1158 34.858ZM33.7385 38.1526L32.2528 39.352L33.4299 40.7659L34.905 39.6557L33.7385 38.1526ZM33.7071 38.1149L35.1926 36.9154L34.0261 35.514L32.5543 36.6013L33.7071 38.1149ZM27.5829 47.6816L28.9104 46.3142V46.3141L27.5829 47.6816ZM49.3126 40.3234L51.0216 39.4593L50.1746 37.8343L48.4957 38.6111L49.3126 40.3234ZM50.1355 41.9022L48.4265 42.7662L48.4327 42.778L48.439 42.7897L50.1355 41.9022ZM59.2765 58.847L61.0289 58.072L61.0028 58.0149L60.9731 57.9596L59.2765 58.847ZM65.5726 58.6209L67.4809 58.8386L67.4937 58.7301V58.6209H65.5726ZM55.3836 34.9097L54.6308 36.6503L54.664 36.6642L54.6978 36.6769L55.3836 34.9097ZM55.3668 34.9026L54.6138 36.6431H54.614L55.3668 34.9026ZM48.3977 42.7953L50.0943 41.9077L49.2361 40.317L47.5808 41.0828L48.3977 42.7953ZM37.7753 32.7719L38.9281 34.2853L38.9349 34.2801L38.9418 34.275L37.7753 32.7719ZM41.274 30.1874L42.2108 31.839L42.3235 31.7772L42.4268 31.7008L41.274 30.1874ZM41.315 30.157L42.7951 28.9509L41.6275 27.5613L40.1622 28.6436L41.315 30.157ZM41.3197 30.1626L39.8396 31.3686L40.8515 32.573L42.2433 31.8213L41.3197 30.1626ZM56.1773 33.1985L55.4245 34.9391L55.4577 34.953L55.4915 34.9657L56.1773 33.1985ZM67.5321 58.6736L69.4432 58.8668L69.4532 58.7704V58.6736H67.5321ZM67.5273 58.7192L69.4384 58.9124V58.9123L67.5273 58.7192ZM57.4989 59.6665L59.2514 58.8915L59.2253 58.8342L59.1955 58.7789L57.4989 59.6665ZM41.2404 30.185L36.9632 33.3446L39.2686 36.3715L43.546 33.2119L41.2404 30.185ZM36.9493 33.3549L32.572 36.6493L34.905 39.6557L39.2824 36.3612L36.9493 33.3549ZM35.224 36.9531L35.1926 36.9154L32.2214 39.3143L32.2528 39.352L35.224 36.9531ZM32.5543 36.6013L26.8 40.852L29.1055 43.8789L34.8597 39.6282L32.5543 36.6013ZM26.8 40.852C24.0828 42.8592 23.774 46.7131 26.2554 49.0492L28.9104 46.3141C28.1942 45.6399 28.231 44.5249 29.1055 43.8789L26.8 40.852ZM26.2554 49.0492C27.9943 50.6863 30.6133 51.065 32.7796 50.0627L31.1458 46.6381C30.3711 46.9965 29.4658 46.837 28.9104 46.3142L26.2554 49.0492ZM32.7796 50.0627L50.1294 42.0357L48.4957 38.6111L31.1458 46.6381L32.7796 50.0627ZM47.6035 41.1874L48.4265 42.7662L51.8446 41.0382L51.0216 39.4593L47.6035 41.1874ZM48.439 42.7897L57.5659 59.7086L60.9591 57.9335L51.8321 41.0146L48.439 42.7897ZM57.5659 59.7086L57.5799 59.7346L60.9731 57.9596L60.9591 57.9335L57.5659 59.7086ZM57.524 59.622L57.5362 59.6489L61.0411 58.0989L61.0289 58.072L57.524 59.622ZM57.5362 59.6489L57.8547 60.3474L61.3598 58.7973L61.0411 58.0988L57.5362 59.6489ZM57.8547 60.3474C58.9076 62.6562 61.2604 63.4469 63.2402 63.1278C65.2148 62.8097 67.1877 61.3316 67.4809 58.8386L63.6642 58.4032C63.6039 58.9162 63.2245 59.2963 62.62 59.3938C62.0207 59.4903 61.5678 59.2536 61.3598 58.7973L57.8547 60.3474ZM67.4937 58.6209V41.0305H63.6515V58.6209H67.4937ZM67.4937 41.0305C67.4937 38.8323 66.0964 36.9161 64.0295 36.1382L62.6579 39.6727C63.2921 39.9113 63.6515 40.4584 63.6515 41.0305H67.4937ZM64.0295 36.1382L56.0866 33.1489L54.715 36.6834L62.6579 39.6727L64.0295 36.1382ZM56.0866 33.1489L56.0693 33.1424L54.6978 36.6769L54.7151 36.6834L56.0866 33.1489ZM56.1364 33.1691L56.1196 33.162L54.614 36.6431L54.6308 36.6503L56.1364 33.1691ZM56.1196 33.162L48.0205 29.7649L46.5149 33.2461L54.6138 36.6431L56.1196 33.162ZM48.0205 29.7649C45.929 28.8876 43.531 28.9924 41.513 30.0168L43.2733 33.3801C44.2948 32.8616 45.4962 32.8186 46.5149 33.2461L48.0205 29.7649ZM47.5808 41.0828L32.0062 48.2885L33.64 51.7132L49.2146 44.5076L47.5808 41.0828ZM32.0062 48.2885C30.4715 48.9986 28.6557 48.7001 27.5073 47.6191L24.8523 50.3542C27.1841 52.5493 30.7137 53.067 33.64 51.7132L32.0062 48.2885ZM27.5073 47.6191C25.9648 46.1669 26.0909 43.768 27.8935 42.4365L25.588 39.4096C21.9427 42.1023 21.5446 47.2401 24.8523 50.3542L27.5073 47.6191ZM27.8935 42.4365L38.9281 34.2853L36.6225 31.2584L25.588 39.4096L27.8935 42.4365ZM38.9418 34.275L41.9823 31.9866L39.6493 28.9803L36.6087 31.2686L38.9418 34.275ZM41.9823 31.9866C42.0542 31.9326 42.1305 31.8832 42.2108 31.839L40.3372 28.5357C40.0975 28.6676 39.8676 28.8161 39.6493 28.9803L41.9823 31.9866ZM42.4268 31.7008L42.4678 31.6705L40.1622 28.6436L40.1212 28.6739L42.4268 31.7008ZM39.835 31.3632L39.8396 31.3686L42.7996 28.9563L42.7951 28.9509L39.835 31.3632ZM42.2433 31.8213C43.8292 30.965 45.7279 30.8719 47.3425 31.549L48.8481 28.0678C46.1307 26.928 42.9968 27.0993 40.396 28.5036L42.2433 31.8213ZM47.3425 31.549L55.4245 34.9391L56.9301 31.458L48.8481 28.0678L47.3425 31.549ZM55.4915 34.9657L63.4173 37.9486L64.7889 34.4142L56.8632 31.4312L55.4915 34.9657ZM63.4173 37.9486C64.7786 38.4609 65.611 39.6711 65.611 40.9892H69.4532C69.4532 38.0451 67.5827 35.4657 64.7889 34.4142L63.4173 37.9486ZM65.611 40.9892V58.628H69.4532V40.9892H65.611ZM65.611 58.628V58.6736H69.4532V58.628H65.611ZM65.621 58.4805L65.6162 58.5261L69.4384 58.9123L69.4432 58.8668L65.621 58.4805ZM65.6162 58.5261C65.462 60.0059 64.3443 60.9812 62.926 61.2174C61.5095 61.4534 60.1646 60.8939 59.5576 59.5631L56.0527 61.1132C57.5089 64.3066 60.7668 65.4145 63.5665 64.9482C66.3643 64.4823 69.0763 62.3862 69.4384 58.9124L65.6162 58.5261ZM59.5576 59.5631L59.2514 58.8915L55.7464 60.4415L56.0527 61.1132L59.5576 59.5631ZM59.1955 58.7789L50.0943 41.9077L46.7011 43.6828L55.8023 60.5541L59.1955 58.7789Z" fill="#023048"/>
</g>
<path d="M13.2417 37.2299C16.656 38.6272 20.4588 38.805 23.9919 37.7324L27.0409 36.807C28.036 36.505 29.0713 36.3513 30.1126 36.3513H34.2366" stroke="#023048" stroke-width="2"/>
</g>
<defs>
<clipPath id="clip0_59_285">
<rect width="80" height="80" fill="white"/>
</clipPath>
</defs>
</svg>
